<?xml version="1.0" encoding="utf-8"?>
<!-- Generator: Adobe Illustrator 24.2.1, SVG Export Plug-In . SVG Version: 6.00 Build 0)  -->
<svg version="1.1" id="Layer_1" xmlns="http://www.w3.org/2000/svg" xmlns:xlink="http://www.w3.org/1999/xlink" x="0px" y="0px"
	 viewBox="0 0 1000 1000" style="enable-background:new 0 0 1000 1000;" xml:space="preserve">
<style type="text/css">
	.st0{fill:#010101;}
	.st1{fill:#FEB854;}
	.st2{fill:#FDD99A;}
	.st3{fill:#ECF1F9;}
	.st4{fill:#4DB9F5;}
	.st5{fill:#FE5D5D;}
	.st6{fill:#FEFEFE;}
	.st7{fill:#72D7FE;}
	.st8{fill:#697FFE;}
	.st9{fill:#FD5C5C;}
	.st10{fill:#6B6D71;}
	.st11{fill:#000101;}
	.st12{fill:#010100;}
</style>
<g>
	<path d="M161.5,11.8c80,0,160,0,240,0c11,1.9,16.5,8.7,17.2,19.7c-3.4,14.9-10.7,20.9-27.1,20.9c-43.2,0.2-86.3,0.1-129.5,0.1
		c-20.6,0-41.3,0-61.9,0c-13.2,0-13.3,0.1-13.3,13.2c0,112.4,0,224.7,0,337.1c0,43.8,0.2,87.6-0.1,131.4c-0.1,9,2.8,15.6,9.1,21.8
		c46,45.6,91.7,91.5,137.5,137.3c8.5,8.5,8.9,8.8,17.6,0.9c25-22.7,52.5-41,85-51.1c16.7-5.2,33.7-9.3,51.3-9.2
		c3.1,0,6.4,0.2,9.2-1.6c1.1-2.8-1.3-4-2.7-5.4c-15-15.1-30.2-30-45-45.2c-5-5.2-9-5.4-14.4-0.6c-16.8,14.8-35.8,24.7-58.3,28.2
		c-41.2,6.4-86.4-15.7-105.8-52.5c-24.2-45.8-17.2-92.3,19.5-129.1c18.8-18.9,37.6-37.9,56.6-56.5c7-6.8,11.9-14.6,15.7-23.5
		c39.6-94.2,79.8-188.2,120-282.1c8.7-20.3,24.5-23.4,40.2-7.9c26.1,25.9,52.2,51.9,78.1,78.2c5.4,5.5,9.7,7,17.3,3.6
		c30.8-13.9,68.2-6.1,92.3,18.3c23.9,24.2,30.6,60.3,16.4,91.6c-3.1,6.8-1.5,11,3.3,15.8c26.2,25.9,52.2,52,78.2,78.1
		c3.8,3.8,8.2,7.3,7.9,13.5c0,3.5,0,7,0,10.5c0.3,9-6.1,12.9-12.8,16c-18.4,8.5-37.3,16.1-56,24.1c-69.2,29.6-138.4,59.1-207.6,88.5
		c-8.3,3.5-8.6,4.7-2.4,11c16.3,16.5,32.8,32.7,49.1,49.2c15.1,15.2,15,26.2-0.1,41.5c-12.5,12.6-25.2,25.1-37.7,37.8
		c-0.5,0.5-0.8,1-1,1.6c-0.2,0.7,0,1.3,0.7,1.5c39.7,9.2,73.4,29.4,102.8,57.1c6.1,5.7,10,5.3,15.7-0.5
		c46.5-46.9,93.2-93.5,140.1-140.1c5.7-5.6,7.8-11.7,7.7-19.5c-0.2-48.2-0.1-96.5-0.2-144.7c0-7.9,0.4-15.8,1.6-23.7
		c0-3.7,0-7.4,0-11.1c-3.8-22.5-2.2-45.2-1.2-67.8c0.4-10.4,8.3-16.5,18.4-19c13.4,0.1,22.1,7.7,23.9,20.6c0.4,2.8,0.6,5.7,0.3,8.5
		c-0.7,7.7,2.3,12.9,8.5,17.7c36.6,28.1,73,56.5,109.3,85.1c5.7,4.5,11.2,9.3,13.2,16.7c0,162.5,0,325.1,0,487.6
		c-3.5,33.5-22.6,56-50.4,72.7c-12.7,7.6-26.6,10.1-41,10.1c-264.4,0-528.7-0.2-793.1,0.3c-46.3,0.1-92.1-45.5-92-91.2
		c0.5-157.7,0.3-315.4,0.1-473.1c0-11.1,6.4-17.5,13.8-23.6c17.9-14.8,36.2-29,54.1-43.7c17.2-14.1,34.4-28.1,52.1-41.5
		c8.4-6.4,11.7-13.7,11.7-24.3c-0.3-81.5-0.2-163.1-0.2-244.6c0-4.1-0.1-8.3,0.2-12.4C144.4,20.6,148.9,15.2,161.5,11.8z"/>
	<path d="M837.7,11.8c20.9,8.4,23.4,22,7.2,38.4c-3.1,3.1-6,6.4-9,9.6c-6.6,10.2-16.2,17.7-24.5,26.3
		c-11.5,11.8-23.2,23.4-34.9,34.9c-10.3,10.2-22.2,11.2-31.1,2.7c-9.3-8.9-9.3-21.1,0.8-32C759,78,772.6,65.2,785.7,52
		c7.4-7.4,14.8-14.7,22.1-22.2c4.1-3.8,8.1-7.7,12-11.7c4.5-4.5,10.4-4.8,16-6.3C836.5,11.8,837.1,11.8,837.7,11.8z"/>
	<path class="st0" d="M668.4,31c1.4-9.2,6.8-15.3,15-19.1c3.2,0,6.3,0,9.5,0c9.1,2.1,15.2,7.1,15.8,17.1c0.6,12.9,0.5,25.9,0.2,38.8
		c-0.3,13-7.2,20.9-18.6,22.5c-10.6,1.4-20.3-4.6-23-16.7C664.3,59.5,662.6,45,668.4,31z"/>
	<path class="st1" d="M132.1,948.3c20.6-18.7,40.1-36.2,59.4-54c3.3-3.1,7-2.5,10.7-2.5c42.5,0,85.1,0,127.6,0
		c11.9,0,19.4-4.5,22.1-12.8c4.4-13.5-5-25.1-20.9-25.2c-27.6-0.2-55.2-0.1-82.8-0.1c-3.1,0-6.2,0-9.8,0c0.5-3.4,2.9-4.5,4.6-6.1
		c49.6-45,98.1-91.2,149.2-134.5c65.6-55.6,156.9-53.7,221.9,4.1c84.4,75.1,167.5,151.7,251.1,227.6c0.9,0.8,1.6,1.8,3.2,3.4
		C623,948.3,378.6,948.3,132.1,948.3z"/>
	<path class="st2" d="M51,469.2c48.1,48.1,94.2,94.3,140.4,140.6c38.6,38.6,77.1,77.3,115.9,115.6c5.6,5.5,4.9,8.1-0.5,12.9
		c-72.9,66-145.7,132.1-218.3,198.4c-5.1,4.7-8.5,4.7-13.5,0.7C58.8,924.4,50.9,907.8,51,887c0.1-58.4,0-116.7,0-175.1
		c0-77.1,0-154.2,0-231.3C51,477.6,51,474.6,51,469.2z"/>
	<path class="st2" d="M950.1,469.9c0,3.8,0,5.9,0,8.1c0,136.1-0.1,272.2,0.1,408.3c0,21.1-7.6,38.1-24.2,51.2
		c-4.5,3.6-7.8,4.4-12.8-0.2C840.1,870.5,766.8,804,693.5,737.5c-4-3.7-6.1-5.8-0.9-10.9c84.8-84.4,169.3-169,253.9-253.6
		C947.1,472.3,947.9,471.8,950.1,469.9z"/>
	<path class="st3" d="M816.5,368.2c0.1,58.4,0.1,116.8,0.3,175.1c0,3.8-1.2,6.5-3.9,9.1c-49.9,49.8-99.7,99.5-149.4,149.5
		c-4.3,4.3-6.4,2.7-9.8-0.6c-23.4-22.7-49.4-41.6-80.4-52.8c-10.1-3.7-20.4-6.8-31-8.7c-0.8-3.4,2.1-4.5,3.7-6.1
		c13.2-13.3,26.5-26.5,39.7-39.8c12.8-12.8,12.8-22.2,0.2-34.9c-19.7-19.7-39.4-39.4-60.1-60.1c22.8-9.7,44.4-19,66-28.2
		c69.5-29.7,139-59.4,208.6-89c6.6-2.8,12.6-6,14.7-13.6C815.6,367.2,816.1,367.1,816.5,368.2z"/>
	<path class="st4" d="M477.5,181.9c2.1,1.9,4.2,3.7,6.2,5.7c64.8,64.8,129.7,129.6,194.5,194.4c7.4,7.4,7.4,7.4-2.3,11.6
		c-57,24.4-114.1,48.7-171,73.2c-5.7,2.4-9.3,2.2-14-2.5c-29.3-29.9-59-59.4-88.7-88.9c-3.2-3.2-5.7-5.7-3.3-11.3
		c25.9-60.1,51.5-120.4,77.1-180.7C476.1,182.9,476.7,182.6,477.5,181.9z"/>
	<path class="st5" d="M296.8,506.8c0.7-21.2,7.8-36.4,20.3-49c17.2-17.3,34.7-34.4,51.7-51.9c4.2-4.3,6.5-3.9,10.5,0.2
		c27,27.3,54.2,54.4,81.4,81.4c3,3,5,5,0.9,9c-19.8,19.2-38.6,39.5-59.2,57.8c-19.8,17.6-43.6,20.1-67.5,9.1
		C309.7,551.9,297.7,531,296.8,506.8z"/>
	<path class="st6" d="M761.3,357c-10.2,4.4-21.9,9.2-33.3,14.5c-4.8,2.2-6.9-0.6-9.6-3.3c-17.7-17.7-35.5-35.5-53.2-53.2
		c-55.4-55.4-110.8-110.9-166.4-166.1c-4.7-4.6-5.2-8-2.5-13.7c4.9-10.2,9-20.8,13-30.3C593.3,188.9,677.2,272.9,761.3,357z"/>
	<path class="st7" d="M145.8,356.3c0,51.7,0,101.9,0,154c-10.2-10.3-19.3-19.5-28.4-28.5c-17.5-17.5-34.9-35.1-52.5-52.4
		c-3.5-3.5-3.8-5.1,0.4-8.5C91.9,399.8,118.2,378.5,145.8,356.3z"/>
	<path class="st7" d="M855.3,508.3c0-49.4,0-98.7,0-148.5c3.9,0.8,6.4,3.9,9.2,6.1c23.3,18,46.5,36.2,69.8,54.3
		c3.3,2.5,6.9,4.3,1.9,9.2c-26.5,26-52.6,52.3-78.9,78.4C857,508.2,856.3,508.1,855.3,508.3z"/>
	<path class="st8" d="M492.2,520c1.3,1,2.7,1.8,3.7,2.9c16.6,16.6,33.1,33.2,49.8,49.7c2.9,2.8,3.4,5.1,0,7.6
		c-0.3,0.2-0.4,0.5-0.7,0.7c-6.4,6.2-12.2,16.6-19.2,17.3c-7.4,0.8-12.9-10.6-19.2-16.7c-11.4-11-22.3-22.5-33.7-33.5
		c-3.6-3.4-3.8-5.7-0.1-9.1c5.4-4.9,10.4-10.2,15.5-15.4C489.5,522.3,490.7,521.3,492.2,520z"/>
	<path class="st9" d="M639.8,174.6c15.5-3.7,29.9-0.4,41.6,11.8c11.2,11.6,13.9,25.7,10.6,40.2C674.7,209.3,657.4,192,639.8,174.6z"
		/>
	<path class="st10" d="M816.5,368.2l-0.7-0.2c0,0-0.7,0.2-0.7,0.2c0-3.9-0.1-7.8-0.1-11.8c0.5,0.3,1.1,0.3,1.6,0
		C816.6,360.3,816.6,364.3,816.5,368.2z"/>
	<path class="st11" d="M835.8,198.2c-13.9-0.5-27.8-0.6-41.6-1.6c-8.6-0.6-13.4-6.8-15-14.9c-1.6-8.3,1.7-14.8,8.8-19.4
		c3.9-2.5,8.4-2.8,12.8-2.8c13.6,0,27.2,0.3,40.8,0.5c9.4,3.1,14.5,9.6,14.3,19.5C855.7,189.2,849.7,194.4,835.8,198.2z"/>
	<path d="M290,263.2c-14.6,0-29.2,0.1-43.8,0c-13.2-0.2-21.7-7.6-21.8-18.8c-0.1-11.2,8.3-19.1,21.4-19.2c28.9-0.2,57.8-0.2,86.7,0
		c13,0.1,21.6,8.1,21.4,19.3c-0.2,11.1-8.8,18.6-22,18.7C317.9,263.4,304,263.2,290,263.2z"/>
	<path d="M280.6,118.5c12.1,0,24.1-0.1,36.2,0c13.1,0.2,21.7,7.8,21.9,18.8c0.1,11.1-8.5,19-21.5,19.2c-23.8,0.2-47.6,0.2-71.4,0
		c-13-0.1-21.5-8.1-21.3-19.3c0.2-10.8,8.5-18.4,21-18.7C257.1,118.3,268.8,118.5,280.6,118.5z"/>
	<path class="st0" d="M390.4,156.5c-9.8,0.2-19-8.7-19.2-18.6c-0.2-9.8,8.7-19,18.6-19.2c9.8-0.2,19,8.7,19.2,18.6
		C409.2,147.1,400.3,156.3,390.4,156.5z"/>
	<path class="st12" d="M431.2,872.5c0.1,9.9-8.7,19-18.7,19.1c-10,0.2-18.8-8.5-18.9-18.7c-0.1-10.2,8.4-19,18.5-19.2
		C422,853.6,431,862.5,431.2,872.5z"/>
</g>
</svg>
