<?xml version="1.0" encoding="utf-8"?>
<!-- Generator: Adobe Illustrator 24.2.1, SVG Export Plug-In . SVG Version: 6.00 Build 0)  -->
<svg version="1.1" id="Layer_1" xmlns="http://www.w3.org/2000/svg" xmlns:xlink="http://www.w3.org/1999/xlink" x="0px" y="0px"
	 viewBox="0 0 1000 1000" style="enable-background:new 0 0 1000 1000;" xml:space="preserve">
<style type="text/css">
	.st0{fill:#FEFEFE;}
	.st1{fill:#393939;}
	.st2{fill:#4F4F4F;}
	.st3{fill:#505050;}
	.st4{fill:#7B7B7B;}
	.st5{fill:#707070;}
	.st6{fill:#525252;}
	.st7{fill:#3D3D3D;}
	.st8{fill:#535353;}
	.st9{fill:#717171;}
	.st10{fill:#8F8F8F;}
	.st11{fill:#929292;}
	.st12{fill:#737373;}
	.st13{fill:#373737;}
	.st14{fill:#BFEFFA;}
	.st15{fill:#010101;}
	.st16{fill:#000001;}
	.st17{fill:#FE737F;}
</style>
<path d="M16.1,461.3c4.3-10.2,3.7-21.2,5.2-31.8C50.2,229.3,206.9,65.1,405.4,27.1c49.8-9.5,99.7-11.9,150.1-5.6
	c12.6,1.6,20.3,10.3,18.8,21.2c-1.5,11-11.2,17.6-23.6,16.1C326,32,113.9,182,65,402.2C23.2,590.7,102.8,780,267.9,881.1
	c87.2,53.4,182.7,75.9,284.2,61.2C737,915.6,862.9,812.5,922.2,636.1c47.1-140.4,22.5-273.9-62.2-395.7c-0.7-1-1.6-1.9-3-3.7
	c-2,6.3-0.8,12.1-1.1,17.7c-0.5,11.6-7.8,19.7-18.2,20c-10.6,0.3-19.2-8.1-19.4-20c-0.3-23.3-0.3-46.5,0-69.8
	c0.2-11.9,7.9-19.4,19.7-19.5c23.3-0.2,46.5-0.2,69.8,0c11.7,0.1,19.5,7.7,19.7,18.4c0.2,11.1-7.7,18.9-19.9,19.2
	c-8.8,0.2-17.6,0-26.4,0c-1.4,3.2,1.4,4.6,2.7,6.3c67.5,90.2,99.9,191.7,98,304.1c-3.5,216.2-160.1,409.2-370.8,457.6
	c-23.3,5.3-46.8,9.3-70.6,11.2c-1.5,0.1-3.2-0.3-3.7,1.9c-1.9,0-3.8,0-5.7,0c-1.7-1.7-3.8-0.7-5.8-1c-1.6,0-3.2,0-4.8,0
	c-1.5,0.1-3.2-0.4-4.5,1c-11.3,0-22.6,0-34,0c-1.2-1.3-2.9-0.9-4.4-1c-1.6,0-3.1,0-4.7,0c-1.2,0-2.3,0-3.5,0c-1.5,0.1-3.1-0.3-4.4,1
	c-2.5,0-5,0-7.5,0c-20.2-2.3-40.4-3.8-60.3-8.2c-78.4-17.3-148.7-51.1-210.1-103.1c-51.7-43.7-93.4-95.6-123.3-156.3
	c-22.9-46.5-38.6-95.4-45.2-147c-1.1-8.9-0.3-18.1-2.4-26.9c0-2.5,0-5,0-7.5c1.3-1.2,0.9-2.7,1-4.2c0-1.1,0-2.2,0-3.4
	c0-1.1,0-2.2,0-3.4c-0.1-1.4,0.3-3-1-4.2c0-11.9,0-23.9,0-35.8c1.6-1.6,0.7-3.6,1-5.5c0-1.2,0-2.3,0-3.5c-0.1-1.5,0.3-3.1-1-4.3
	C16.1,467.6,16.1,464.5,16.1,461.3z"/>
<path class="st0" d="M16.1,542.5c4.6,9.4,3.7,19.9,5.2,29.8c28.3,195.3,177.2,356.1,370.4,399.8c19.9,4.5,40.1,7.5,60.3,9.8
	c1.9,0.2,4.6-1,5.5,2.1c-144.6,0-289.3-0.1-433.9,0.2c-6.5,0-7.7-1.3-7.7-7.7C16.1,831.7,16.1,687.1,16.1,542.5z"/>
<path class="st1" d="M17.8,478.2c0.2,2.1,0.6,4.3-1.7,5.7c0-1.9,0-3.8,0-5.7C16.6,477.5,17.2,477.4,17.8,478.2z"/>
<path class="st2" d="M472.5,982.2c1.9,0,3.8,0.1,5.6,0.1c0.7,0.3,0.9,0.6,0.8,1c-0.2,0.4-0.4,0.6-0.6,0.6c-1.9,0-3.8,0-5.7,0
	c-0.6-0.3-0.8-0.7-0.6-1.1C472.2,982.4,472.4,982.2,472.5,982.2z"/>
<path class="st3" d="M519.9,982.3c1.9,0,3.8,0,5.7,0c0.5,0.4,0.7,0.8,0.4,1.1c-0.2,0.3-0.4,0.5-0.6,0.5c-1.9,0-3.8,0-5.7,0
	c-0.6-0.4-0.8-0.8-0.6-1.1C519.5,982.5,519.7,982.3,519.9,982.3z"/>
<path class="st4" d="M525.5,983.9c0-0.5,0.1-1.1,0.1-1.6c2,0.1,4.4-1.6,5.5,1.6C529.2,983.9,527.3,983.9,525.5,983.9z"/>
<path class="st5" d="M16.1,470.8c2.1,0.5,1.8,2.1,1.6,3.7c-0.5,0.9-1,1-1.6,0.1C16.1,473.3,16.1,472,16.1,470.8z"/>
<path class="st6" d="M16.1,474.5c0.5,0,1.1-0.1,1.6-0.1c0,1.3,0.1,2.5,0.1,3.8c-0.6,0.1-1.1,0.1-1.7,0.1
	C16.1,477.1,16.1,475.8,16.1,474.5z"/>
<path class="st7" d="M16.1,519.8c1.7,0.8,1.9,2.3,1.6,3.9c-0.6,0.8-1.1,0.7-1.6-0.1C16.1,522.3,16.1,521.1,16.1,519.8z"/>
<path class="st8" d="M16.1,523.6c0.5,0,1.1,0.1,1.6,0.1c0,1.3,0,2.5,0,3.8c-0.6,0.8-1.1,0.7-1.6-0.1
	C16.1,526.1,16.1,524.8,16.1,523.6z"/>
<path class="st9" d="M16.1,527.4c0.5,0,1.1,0.1,1.6,0.1c0,1.2,0,2.5,0,3.7c-0.6,0.8-1.1,0.7-1.6-0.1
	C16.1,529.9,16.1,528.6,16.1,527.4z"/>
<path class="st10" d="M16.1,531.1c0.5,0,1.1,0.1,1.6,0.1c0.2,1.6,0.8,3.3-1.6,3.7C16.1,533.7,16.1,532.4,16.1,531.1z"/>
<path class="st11" d="M465.1,983.9c0.4-2.3,2.1-1.8,3.7-1.6c0.7,0.3,0.9,0.7,0.7,1c-0.2,0.4-0.4,0.6-0.6,0.6
	C467.6,983.9,466.3,983.9,465.1,983.9z"/>
<path class="st12" d="M468.9,983.9c0-0.5,0-1.1-0.1-1.6c1.3,0,2.5-0.1,3.8-0.1c0.1,0.6,0.1,1.1,0.1,1.7
	C471.4,983.9,470.1,983.9,468.9,983.9z"/>
<path class="st13" d="M478.3,983.9c0-0.5-0.1-1.1-0.1-1.6c1.6-0.3,3.1-0.1,3.9,1.6C480.8,983.9,479.6,983.9,478.3,983.9z"/>
<path class="st13" d="M519.9,982.3c-0.1,0.5-0.1,1.1-0.1,1.6c-1.3,0-2.5,0-3.8,0C516.9,982.2,518.3,982,519.9,982.3z"/>
<path class="st14" d="M221.7,302.9c6.8-10.3,14.2-20.2,23.3-28.7c2.5-1.5,4.8-0.1,7.2,0.5c14.2,3.3,23.9-6.4,20.6-20.6
	c-0.5-2.4-2-4.7-0.5-7.2c8.7-9.2,18.6-16.9,29.4-23.6c2-0.3,3.8,0.4,5.4,1.4c8,5.2,15.3,3.2,22.9-1.3c21.1-12.6,43.1-23.3,66.5-31
	c84.5-27.5,166.7-22.2,246.3,17.3c81.5,40.5,136.1,104.9,165.2,190.8c12.1,35.7,17.6,72.8,16,110.5c-6.1,141.8-96.4,258-228.1,299.9
	c-34.3,10.9-69.9,16.4-106,14.8c-74.5-3.2-141.4-27.5-199-75.7c-62.2-52-99.3-118.7-112.2-198.3c-12.3-76.2,1-148.4,40.3-215
	C226,325,227.5,314.7,221.7,302.9z"/>
<path d="M221.7,302.9c9.8,11.4,10.1,16.8,2,30.3c-73,122.7-59.7,275.4,34.7,381.9c57.1,64.4,129.5,100.6,215.5,106.7
	c159.3,11.3,296.6-87.3,337.4-241.2c46.1-173.8-66.9-357.5-242.8-394.8c-84-17.8-162.8-4.4-236.5,39.5c-13.5,8.1-19,7.8-30.4-1.9
	c-5.8-14.5-3.5-21.7,9.9-29.9C519.8,66.3,793,180.2,849.3,417.5c47.6,200.8-82.7,400.5-285.5,437.6
	C368.7,890.8,181.2,761.9,145,566.4c-16.6-90-0.2-174.7,46.9-253.4C200,299.5,207,297.2,221.7,302.9z"/>
<path class="st15" d="M648.3,55.4c0,10.6-8.6,19.2-19,19c-9.9-0.3-18.5-9-18.5-18.8c0-10.3,8.8-19,19.3-18.8
	C640.3,37,648.3,45,648.3,55.4z"/>
<path class="st15" d="M272.3,246.9c4.4,7.7,6.4,15.5,0.7,23.5c-4.1,5.7-9.8,8.2-16.9,8c-4.3-0.1-7.5-2.8-11.2-4.2
	c-8.1-12-8-21,0.2-28.4C252.9,238.8,260.9,239.2,272.3,246.9z"/>
<path d="M434.2,500.4c0-8.4,1.2-16.5,4.9-23.9c2.5-5,1.2-7.8-2.3-11.3c-19.5-19.2-38.8-38.6-58.1-57.9c-6.7-6.8-8.4-14.8-3.8-23.2
	c4.2-7.7,11.3-10.6,20-9.3c5.6,0.9,9.4,4.7,13.2,8.5c18.2,18.3,36.5,36.4,54.6,54.8c4,4.1,7.2,5.1,12.9,2.7
	c15.4-6.4,31.4-6.5,46.8-0.1c6.1,2.6,9.4,1.1,13.6-3.2c39-39.3,78.2-78.3,117.3-117.4c2.7-2.7,5.3-5.4,8.4-7.5
	c7.3-5,17.1-4,23.4,2.1c6.3,6.1,7.6,15.8,2.7,23.3c-2.2,3.4-5.2,6.3-8,9.2C641,385.8,602.4,424.5,563.5,463c-5.1,5-6.6,8.9-3.8,16
	c9.6,24.6,2.6,51.7-16.9,69.7c-18.7,17.4-47,22.2-70.2,11.4C447.6,548.3,435.1,528,434.2,500.4z"/>
<path class="st16" d="M755.5,519.9c-4.1,0-8.2,0.2-12.2,0c-9.9-0.6-17.2-7.7-17.8-17.2c-0.7-9.7,6.1-18.9,16-19.9
	c9.3-0.9,18.8-0.9,28.2-0.1c10.2,0.9,16.8,9.5,16.4,19.5c-0.4,10-7.8,17.2-18.3,17.7C763.7,520.1,759.6,519.9,755.5,519.9z"/>
<path d="M517.6,757.8c0,4.1,0.3,8.2-0.1,12.2c-1,10.8-8.9,18-19.2,17.9c-10.4-0.2-17.9-7.7-18.2-18.7c-0.3-7.5-0.2-15,0-22.6
	c0.3-11.2,7.4-18.8,17.7-19.3c10.5-0.5,18.9,7.1,19.9,18.3C517.9,749.7,517.7,753.8,517.6,757.8z"/>
<path d="M518,244.4c0,4.1,0.2,8.2-0.1,12.2c-0.6,10-7.7,17.2-17.2,17.9c-9.8,0.7-18.9-5.9-19.9-16c-1-9.3-0.9-18.8-0.1-28.2
	c0.9-10.2,9.4-16.8,19.5-16.4c10,0.4,17.2,7.7,17.7,18.2C518.2,236.3,518,240.4,518,244.4z"/>
<path d="M242.6,482c3.8,0,7.5-0.1,11.3,0c10.6,0.4,18.1,7.4,18.8,17.3c0.7,10.1-6.4,19.2-17,20c-9,0.7-18.2,0.7-27.2-0.1
	c-10.2-0.9-16.8-9.5-16.4-19.5c0.4-9.9,7.8-17.2,18.3-17.7C234.4,481.8,238.5,482,242.6,482z"/>
<path class="st17" d="M499.2,474c15.2,0.1,26.8,11.7,26.9,26.8c0.1,15.4-12.2,27.4-27.6,27.1c-15-0.3-26.5-12.2-26.4-27.4
	C472.2,485.5,484,473.9,499.2,474z"/>
</svg>
